<svg xmlns="http://www.w3.org/2000/svg" width="240" height="217" viewBox="0 0 240 217" fill="none">
<g clip-path="url(#clip0_2180_38970)">
<path d="M161.685 77.7801C144.652 77.7801 127.315 77.0929 111.095 72.6001C95.1797 68.2094 80.571 59.6872 67.5456 49.8297C59.0172 43.4126 51.2667 38.2914 40.1957 39.0611C29.3655 39.6424 19.0091 43.6678 10.6466 50.5366C-3.43696 62.8015 -1.32067 85.5365 4.3175 101.446C12.7827 125.473 38.5453 142.211 60.4426 153.042C85.7393 165.614 113.535 172.918 141.395 177.109C165.815 180.812 197.196 183.487 218.359 167.636C237.792 153.042 243.126 119.763 238.365 97.2948C237.208 90.6577 233.654 84.6686 228.372 80.4546C214.718 70.5147 194.345 77.1557 179.002 77.4777C173.305 77.5955 167.505 77.7369 161.685 77.7801Z" fill="#F9FAFB"/>
<path d="M120.819 216.495C162.079 216.495 195.525 214.421 195.525 211.861C195.525 209.3 162.079 207.227 120.819 207.227C79.5593 207.227 46.1133 209.3 46.1133 211.861C46.1133 214.421 79.5593 216.495 120.819 216.495Z" fill="#F9FAFB"/>
<path d="M15.4062 33.1486L41.8599 30.9218C45.1606 30.6351 48.4575 31.4834 51.2015 33.3253C53.9456 35.1672 55.9711 37.8927 56.9384 41.0424L82.2944 125.451L77.3274 134.295C76.0521 136.573 75.4243 139.154 75.5073 141.761C75.5902 144.369 76.3838 146.906 77.8012 149.097C79.2187 151.293 81.2086 153.06 83.5618 154.219C85.911 155.377 88.5327 155.876 91.1465 155.668L192.693 147.087" stroke="#667085" stroke-width="2.03122" stroke-linecap="round" stroke-linejoin="round"/>
<path d="M60.7266 53.8547L178.757 43.8951C179.918 43.797 181.09 43.958 182.18 44.3703C183.274 44.7827 184.257 45.4346 185.059 46.2751C185.86 47.1155 186.464 48.1287 186.819 49.2323C187.175 50.3359 187.277 51.5101 187.12 52.6569L179.12 110.081C178.879 111.806 178.058 113.396 176.795 114.602C175.531 115.807 173.901 116.554 172.159 116.722L82.2922 125.445L60.7266 53.8547Z" fill="white" stroke="#667085" stroke-width="2.03122" stroke-linecap="round" stroke-linejoin="round"/>
<path d="M102.442 175.024C107.737 175.024 112.028 170.755 112.028 165.489C112.028 160.222 107.737 155.953 102.442 155.953C97.1473 155.953 92.8555 160.222 92.8555 165.489C92.8555 170.755 97.1473 175.024 102.442 175.024Z" fill="white" stroke="#667085" stroke-width="2.03122" stroke-linecap="round" stroke-linejoin="round"/>
<path d="M169.196 169.399C174.491 169.399 178.782 165.13 178.782 159.864C178.782 154.597 174.491 150.328 169.196 150.328C163.901 150.328 159.609 154.597 159.609 159.864C159.609 165.13 163.901 169.399 169.196 169.399Z" fill="white" stroke="#667085" stroke-width="2.03122" stroke-linecap="round" stroke-linejoin="round"/>
<path d="M36.3535 28.639L11.4121 30.744C9.25238 30.9246 7.64542 32.8176 7.83099 34.9658C8.01261 37.114 9.91569 38.7124 12.0754 38.5278L37.0168 36.4228C39.1765 36.2422 40.7835 34.3492 40.5979 32.201C40.4163 30.0528 38.5172 28.4583 36.3535 28.639Z" fill="#D0D5DD"/>
<path d="M110.418 98.2096C110.904 94.514 112.645 91.0973 115.353 88.5249C118.062 85.9486 121.572 84.3738 125.303 84.0596C129.034 83.7415 132.765 84.7037 135.873 86.7851C138.98 88.8666 141.278 91.9416 142.387 95.4997" stroke="#000" stroke-width="2.03122" stroke-linecap="round" stroke-linejoin="round"/>
<path d="M142.657 76.368C143.917 76.368 144.935 75.3548 144.935 74.102C144.935 72.8492 143.917 71.8359 142.657 71.8359C141.398 71.8359 140.379 72.8492 140.379 74.102C140.379 75.3508 141.402 76.368 142.657 76.368Z" fill="#000"/>
<path d="M106.536 79.3993C107.795 79.3993 108.814 78.386 108.814 77.1332C108.814 75.8804 107.795 74.8672 106.536 74.8672C105.276 74.8672 104.258 75.8804 104.258 77.1332C104.258 78.3821 105.276 79.3993 106.536 79.3993Z" fill="#000"/>
<path d="M42.332 162.672V171.394" stroke="#000" stroke-width="2.03122" stroke-linecap="round" stroke-linejoin="round"/>
<path d="M37.9531 167.023H46.7025" stroke="#000" stroke-width="2.03122" stroke-linecap="round" stroke-linejoin="round"/>
<path d="M182.16 0.5V9.20284" stroke="#000" stroke-width="2.03122" stroke-linecap="round" stroke-linejoin="round"/>
<path d="M177.781 4.85156H186.531" stroke="#000" stroke-width="2.03122" stroke-linecap="round" stroke-linejoin="round"/>
<path d="M78.5547 26.5078V35.2107" stroke="#000" stroke-width="2.03122" stroke-linecap="round" stroke-linejoin="round"/>
<path d="M74.1602 30.8672H82.9293" stroke="#000" stroke-width="2.03122" stroke-linecap="round" stroke-linejoin="round"/>
<path d="M203.991 58.5143C205.136 58.5143 206.068 57.5914 206.068 56.4486C206.068 55.3096 205.136 54.3828 203.991 54.3828C202.846 54.3828 201.914 55.3057 201.914 56.4486C201.914 57.5875 202.846 58.5143 203.991 58.5143Z" fill="white" stroke="#000" stroke-width="2.03122" stroke-linecap="round" stroke-linejoin="round"/>
<path d="M126.416 39.9509C127.517 39.9509 128.41 39.0634 128.41 37.9676C128.41 36.8719 127.517 35.9844 126.416 35.9844C125.314 35.9844 124.422 36.8719 124.422 37.9676C124.422 39.0634 125.318 39.9509 126.416 39.9509Z" fill="#F2F4F7"/>
<path d="M139.806 183.912C140.908 183.912 141.8 183.024 141.8 181.929C141.8 180.833 140.908 179.945 139.806 179.945C138.705 179.945 137.812 180.833 137.812 181.929C137.812 183.024 138.705 183.912 139.806 183.912Z" fill="#F2F4F7"/>
</g>
<defs>
<clipPath id="clip0_2180_38970">
<rect width="240" height="216" fill="white" transform="translate(0 0.5)"/>
</clipPath>
</defs>
</svg>